<svg width="72" height="72" viewBox="0 0 72 72" fill="none" xmlns="http://www.w3.org/2000/svg">
<g clip-path="url(#clip0_783_23485)">
<rect width="72" height="72" rx="36" fill="#FCE0C6"/>
<path d="M52.8059 23.257C52.3333 24.8927 51.6485 26.2988 50.782 27.2089C49.9155 28.119 48.8673 28.5328 47.6684 28.1837C46.3794 27.8087 45.7144 26.8964 45.4898 25.669C45.2652 24.4416 45.4813 22.8991 45.954 21.2633C46.4266 19.6276 47.0868 18.2142 47.9411 17.3008C48.7954 16.3873 49.8433 15.9735 51.0918 16.3366C52.2906 16.6854 52.9557 17.5976 53.2028 18.8314C53.4499 20.0653 53.2786 21.6213 52.8059 23.257Z" fill="black"/>
<path d="M19.3677 23.0861C19.8403 24.7218 20.5251 26.1279 21.3916 27.038C22.2581 27.9481 23.3063 28.3619 24.5052 28.0128C25.7941 27.6378 26.4591 26.7255 26.6838 25.4981C26.9084 24.2707 26.6923 22.7282 26.2196 21.0924C25.747 19.4567 25.0868 18.0433 24.2325 17.1299C23.3782 16.2164 22.3303 15.8026 21.0818 16.1657C19.8829 16.5145 19.2179 17.4267 18.9708 18.6605C18.7236 19.8944 18.8953 21.4504 19.3677 23.0861Z" fill="black"/>
<path d="M36.0862 52.271C31.341 52.271 27.0447 52.6799 23.9351 54.3615C20.8255 56.043 18.902 58.9974 18.902 64.0887C18.902 68.4367 20.6055 71.3912 23.6055 73.2584C26.6052 75.1259 30.9015 75.9062 36.0862 75.9062C41.2709 75.9062 45.5672 75.1259 48.5669 73.2584C51.5667 71.3909 53.2704 68.4367 53.2704 64.0887C53.2704 58.9974 51.3469 56.0433 48.2373 54.3615C45.1277 52.6796 40.8317 52.271 36.0862 52.271Z" fill="#FA703C"/>
<path d="M36.0867 22.6099C29.9076 22.6099 23.234 23.7441 18.105 26.6057C12.976 29.4673 9.3916 34.0572 9.3916 40.9677C9.3916 47.7223 12.5508 52.3115 17.4674 55.2125C22.3839 58.1135 29.0576 59.3256 36.0867 59.3256C44.1411 59.3256 50.815 57.835 55.475 54.795C60.135 51.7551 62.7817 47.1655 62.7817 40.9674C62.7817 33.8077 59.5047 29.2181 54.5291 26.4185C49.5535 23.6189 42.8802 22.6099 36.0867 22.6099Z" fill="#FA703C"/>
<path d="M27.9607 39.8144C27.9607 40.4014 27.723 40.9325 27.3383 41.317C26.9536 41.7015 26.4225 41.9394 25.8357 41.9394C25.2489 41.9394 24.7178 41.7015 24.3331 41.317C23.9484 40.9325 23.7107 40.4011 23.7107 39.8144C23.7107 39.2278 23.9484 38.6964 24.3331 38.3119C24.7175 37.9274 25.2489 37.6895 25.8357 37.6895C26.4225 37.6895 26.9536 37.9274 27.3383 38.3119C27.7227 38.6964 27.9607 39.2278 27.9607 39.8144Z" fill="white"/>
<path d="M48.4629 39.8144C48.4629 40.4014 48.2252 40.9325 47.8405 41.317C47.4561 41.7015 46.9247 41.9394 46.3379 41.9394C45.7511 41.9394 45.22 41.7015 44.8353 41.317C44.4509 40.9325 44.2129 40.4011 44.2129 39.8144C44.2129 39.2278 44.4506 38.6964 44.8353 38.3119C45.2197 37.9274 45.7511 37.6895 46.3379 37.6895C46.9247 37.6895 47.4558 37.9274 47.8405 38.3119C48.2252 38.6964 48.4629 39.2278 48.4629 39.8144Z" fill="white"/>
<path d="M34.4001 38.3412C35.4183 37.6488 36.7561 37.6488 37.7742 38.3412L39.6207 39.597C40.494 40.1908 40.5625 41.4528 39.7588 42.1378L37.7087 43.8849C36.7743 44.6812 35.4 44.6812 34.4656 43.8849L32.4155 42.1378C31.6118 41.4528 31.6804 40.1908 32.5536 39.597L34.4001 38.3412Z" fill="#FFCB31"/>
<path d="M6.78808 51.1482C6.58648 50.2082 6.486 49.2057 6.52806 48.24C6.56987 47.2743 6.75422 46.3453 7.12218 45.5519C7.37009 45.0175 7.76629 44.3736 8.31983 43.8052C8.87337 43.2369 9.58417 42.7443 10.461 42.5119C10.9583 42.3802 11.4921 42.4025 12.0052 42.5487C12.5183 42.695 13.0107 42.9658 13.4246 43.3312C13.9877 43.8278 14.4374 44.7226 14.8513 45.723C15.2654 46.7235 15.644 47.8299 16.0646 48.7494C16.6877 50.1116 17.624 51.2504 18.4863 52.1327C19.3487 53.0147 20.1371 53.6402 20.4645 53.9758C21.2241 54.7547 21.8161 55.4253 22.2342 56.047C22.6521 56.6685 22.8962 57.241 22.9601 57.8233C23.0259 58.4245 23.0245 58.9194 22.9264 59.3915C22.8284 59.8633 22.6339 60.3122 22.3132 60.8205C21.9782 61.3519 21.4534 61.7622 20.88 62.0288C20.3066 62.2954 19.6843 62.4185 19.1544 62.3749C16.6524 62.1691 13.812 60.5338 11.4713 58.3645C9.13053 56.1951 7.29029 53.4915 6.78808 51.1482Z" fill="#FA703C"/>
<path d="M65.2124 51.1482C65.414 50.2082 65.5145 49.2057 65.4724 48.24C65.4306 47.2743 65.2463 46.3453 64.8783 45.5519C64.6304 45.0175 64.2342 44.3736 63.6807 43.8052C63.1271 43.2369 62.4163 42.7443 61.5395 42.5119C61.0422 42.3802 60.5084 42.4025 59.9953 42.5487C59.4822 42.695 58.9898 42.9658 58.5759 43.3312C58.0128 43.8278 57.5631 44.7226 57.1492 45.723C56.735 46.7235 56.3565 47.8299 55.9359 48.7494C55.3128 50.1116 54.3765 51.2504 53.5141 52.1327C52.6517 53.0147 51.8634 53.6402 51.536 53.9758C50.7764 54.7547 50.1844 55.4253 49.7663 56.047C49.3483 56.6685 49.1042 57.241 49.0404 57.8233C48.9746 58.4245 48.976 58.9194 49.074 59.3915C49.1721 59.8633 49.3666 60.3122 49.6873 60.8205C50.0223 61.3519 50.5471 61.7622 51.1205 62.0288C51.6939 62.2954 52.3162 62.4185 52.8461 62.3749C55.3481 62.1691 58.1885 60.5338 60.5292 58.3645C62.87 56.1951 64.7102 53.4915 65.2124 51.1482Z" fill="#FA703C"/>
<path d="M10.4613 42.5118C10.9586 42.3801 11.4924 42.4023 12.0055 42.5486C12.5187 42.6949 13.011 42.9657 13.4249 43.3311C13.988 43.8277 14.4377 44.7224 14.8516 45.7229C15.2658 46.7234 15.6443 47.8297 16.0649 48.7493C16.688 50.1115 17.6243 51.2503 18.4867 52.1326C19.3491 53.0146 20.1374 53.6401 20.4648 53.9757C21.2244 54.7546 21.8164 55.4252 22.2346 56.0469" stroke="#F7441C" stroke-width="1.5" stroke-linecap="round"/>
<path d="M61.5395 42.5118C61.0422 42.3801 60.5084 42.4023 59.9953 42.5486C59.4822 42.6949 58.9899 42.9657 58.5759 43.3311C58.0128 43.8277 57.5631 44.7224 57.1492 45.7229C56.7351 46.7234 56.3565 47.8297 55.936 48.7493C55.3129 50.1115 54.3765 51.2503 53.5142 52.1326C52.6518 53.0146 51.8634 53.6401 51.536 53.9757C50.7764 54.7546 50.1845 55.4252 49.7663 56.0469" stroke="#F7441C" stroke-width="1.5" stroke-linecap="round"/>
<path d="M56.3316 41.5898C55.5427 42.5051 53.927 44.7901 53.7754 46.6082" stroke="#F7441C" stroke-width="1.5" stroke-linecap="round"/>
<path d="M16.5946 41.5898C17.3834 42.5051 18.9991 44.7901 19.1508 46.6082" stroke="#F7441C" stroke-width="1.5" stroke-linecap="round"/>
<path opacity="0.3" d="M38.381 63.402L38.381 63.402C37.6797 63.7801 36.8839 63.9689 36.089 63.9692C35.294 63.9695 34.4976 63.7807 33.7951 63.402L33.7951 63.402C33.5269 63.2573 33.2721 63.0869 33.0349 62.894C32.8277 62.7256 32.6341 62.5402 32.4563 62.3403C32.278 62.5405 32.0838 62.7259 31.8763 62.8944C31.6388 63.0872 31.3841 63.2576 31.1156 63.4023L31.1155 63.4023C30.7648 63.5912 30.3915 63.7356 30.0061 63.8329C29.6205 63.9302 29.2228 63.98 28.8235 63.98C28.3864 63.98 27.9534 63.9208 27.5358 63.8054C27.1183 63.69 26.7164 63.5186 26.3416 63.2943L26.3416 63.2943C25.9779 63.0766 25.6443 62.8121 25.349 62.5096C25.0536 62.207 24.796 61.8658 24.5847 61.495L24.5847 61.4949C24.5219 61.3846 24.5093 61.2591 24.5389 61.1455C24.5687 61.0316 24.6418 60.9285 24.751 60.8643L24.7512 60.8642L24.7512 60.8642C24.8603 60.8004 24.985 60.7869 25.0984 60.8178C25.2112 60.8486 25.3126 60.9229 25.3756 61.033L25.3757 61.0332C25.5477 61.3352 25.7575 61.6132 25.9982 61.8595C26.239 62.1059 26.5106 62.3213 26.8065 62.4985L38.381 63.402ZM38.381 63.402C38.6493 63.2573 38.904 63.0866 39.1412 62.8941C39.3484 62.7259 39.5422 62.5406 39.7201 62.3405C39.8978 62.5405 40.0915 62.7256 40.2986 62.894C40.5359 63.0869 40.7906 63.2573 41.0592 63.402C41.4099 63.5912 41.7835 63.7356 42.1693 63.8326C42.555 63.9297 42.9531 63.9797 43.3532 63.9797C43.7903 63.9797 44.2233 63.9202 44.6406 63.8048C45.0579 63.6894 45.4598 63.5178 45.8345 63.2935L45.8346 63.2935C46.1983 63.0757 46.5316 62.8112 46.8269 62.5084C47.1223 62.2056 47.3793 61.8646 47.5902 61.4938M38.381 63.402L47.5902 61.4938M30.687 62.5864L30.687 62.5864C30.9631 62.4375 31.2222 62.2549 31.4571 62.0442C31.692 61.8335 31.903 61.5948 32.0836 61.334L32.0836 61.334C32.1261 61.2727 32.1822 61.2234 32.2462 61.1896C32.3102 61.1558 32.3824 61.1371 32.4572 61.1371C32.5321 61.1371 32.6043 61.1558 32.6682 61.1896L32.6215 61.278L32.6682 61.1896C32.7322 61.2234 32.7884 61.2728 32.831 61.3345M30.687 62.5864L47.4237 60.8631C47.3148 60.7991 47.1901 60.7862 47.077 60.8166L47.103 60.9131L47.077 60.8166C46.9637 60.847 46.862 60.9214 46.7993 61.0324C46.6276 61.3344 46.418 61.6121 46.1776 61.8587C45.9371 62.1053 45.6656 62.3205 45.3699 62.4977C44.788 62.8461 44.1153 63.0286 43.4385 63.0436C42.7618 63.0586 42.0827 62.9057 41.4882 62.5855C41.2122 62.4366 40.9532 62.2538 40.7188 62.0434C40.4845 61.8329 40.2741 61.5946 40.0947 61.3342L40.0947 61.3342C40.0523 61.2727 39.9962 61.2229 39.9319 61.189C39.8679 61.1551 39.7954 61.1365 39.7206 61.1365C39.6461 61.1365 39.5738 61.1548 39.5092 61.1891C39.445 61.2231 39.3889 61.2724 39.3463 61.3342C39.1666 61.5949 38.9562 61.8332 38.7216 62.0439C38.487 62.2546 38.2282 62.4372 37.9521 62.5861C37.3844 62.8922 36.7375 63.0462 36.0892 63.0462C35.4408 63.0462 34.7934 62.8928 34.2246 62.5861C33.9485 62.4373 33.69 62.2547 33.4554 62.0439C33.2208 61.8333 33.0107 61.5949 32.831 61.3345M30.687 62.5864C30.0918 62.9075 29.4129 63.0601 28.7365 63.0448C28.0601 63.0295 27.3882 62.8467 26.8065 62.4985L30.687 62.5864ZM32.831 61.3345L32.7487 61.3913L32.831 61.3345C32.831 61.3345 32.831 61.3345 32.831 61.3345ZM47.5902 61.4938C47.5903 61.4938 47.5903 61.4938 47.5903 61.4938L47.5034 61.4443L47.5902 61.4938Z" fill="#FEEFE9" stroke="#FEEFE9" stroke-width="0.2"/>
<path opacity="0.3" d="M38.4307 70.5426L38.4307 70.5426C38.0449 70.4456 37.6713 70.3012 37.3205 70.112L37.3205 70.112C37.0523 69.9673 36.7976 69.7969 36.5606 69.6043C36.3537 69.4362 36.1596 69.2506 35.9818 69.0505C35.8039 69.2506 35.6101 69.4359 35.4029 69.6043C35.1657 69.7972 34.9109 69.9676 34.643 70.112C33.9414 70.4904 33.1456 70.6792 32.3503 70.6792C31.5551 70.6792 30.7593 70.4907 30.0571 70.112C29.7172 69.9288 29.3993 69.7039 29.1112 69.4452C28.8231 69.1865 28.5649 68.8937 28.3443 68.5736L28.3442 68.5735C28.2723 68.4691 28.2488 68.345 28.2691 68.2289C28.2893 68.1133 28.3528 68.0043 28.4562 67.9308L28.4563 67.9308C28.5593 67.8576 28.6824 67.8334 28.7977 67.8539C28.9132 67.8743 29.0206 67.9399 29.0926 68.0441L29.0927 68.0442C29.2721 68.3046 29.4825 68.543 29.7169 68.7537C29.9511 68.9643 30.2098 69.1469 30.4862 69.2958L30.4862 69.2958C31.0551 69.6025 31.7025 69.7559 32.3506 69.7559C32.9987 69.7559 33.6458 69.6019 34.2138 69.2958C34.4899 69.1469 34.7484 68.9643 34.983 68.7539C35.2176 68.5435 35.428 68.3049 35.6077 68.0445C35.696 67.9161 35.8422 67.8561 35.9818 67.8561C36.1214 67.8561 36.2676 67.9161 36.3559 68.0446M38.4307 70.5426L34.2613 69.3839C34.5445 69.2311 34.8094 69.0439 35.0498 68.8283C35.2902 68.6127 35.5058 68.3682 35.69 68.1013C35.7565 68.0045 35.8691 67.9561 35.9818 67.9561C36.0944 67.9561 36.207 68.0045 36.2735 68.1013C36.4577 68.3682 36.6733 68.6127 36.9137 68.8286C37.1541 69.0445 37.419 69.2317 37.7022 69.3844M38.4307 70.5426C38.8167 70.6396 39.2147 70.6897 39.6149 70.6897C40.0519 70.6897 40.4849 70.6311 40.9023 70.5156C41.3196 70.4002 41.7215 70.2286 42.096 70.0043L42.096 70.0043C42.4594 69.7865 42.7926 69.5224 43.0881 69.2195C43.3834 68.9167 43.6404 68.5758 43.8514 68.2047M38.4307 70.5426L37.7022 69.3844M36.3559 68.0446C36.3559 68.0446 36.3559 68.0446 36.3559 68.0447L36.2735 68.1013L36.3558 68.0445C36.3558 68.0445 36.3558 68.0445 36.3559 68.0446ZM36.3559 68.0446C36.5356 68.3049 36.746 68.5436 36.9805 68.7542C37.2152 68.9649 37.4736 69.1475 37.7497 69.2964M37.7497 69.2964C37.7497 69.2964 37.7497 69.2964 37.7497 69.2964L37.7022 69.3844M37.7497 69.2964L37.7022 69.3844M37.7497 69.2964C38.3441 69.6169 39.0232 69.7698 39.6999 69.7548C40.3767 69.7398 41.0494 69.5572 41.6313 69.2085C41.927 69.0313 42.1982 68.8162 42.4387 68.5696C42.6792 68.323 42.8887 68.0452 43.0604 67.7432C43.1232 67.6322 43.2248 67.558 43.3378 67.5272C43.4513 67.4963 43.5762 67.5097 43.685 67.5741C43.794 67.6383 43.8672 67.741 43.8969 67.8553C43.9264 67.9687 43.9144 68.0943 43.8514 68.2047M43.8514 68.2047C43.8514 68.2047 43.8513 68.2047 43.8513 68.2048L43.7645 68.1552M43.8514 68.2047C43.8514 68.2046 43.8514 68.2046 43.8514 68.2046L43.7645 68.1552M43.7645 68.1552C43.5577 68.5188 43.3059 68.853 43.0165 69.1497C42.727 69.4465 42.4005 69.7052 42.0446 69.9185M43.7645 68.1552C43.8138 68.0688 43.8235 67.9703 43.8001 67.8804C43.7767 67.7906 43.7194 67.7103 43.6342 67.6602C43.5495 67.6101 43.4525 67.5996 43.3641 67.6237C43.2757 67.6477 43.1964 67.7057 43.1474 67.7926L42.0446 69.9185M42.0446 69.9185C41.6779 70.1382 41.2843 70.3062 40.8757 70.4193C40.467 70.5323 40.0429 70.5897 39.6149 70.5897C39.2231 70.5897 38.8332 70.5407 38.4551 70.4456L42.0446 69.9185ZM29.0103 68.101C28.9539 68.0193 28.87 67.9683 28.7802 67.9523C28.6904 67.9364 28.5946 67.9552 28.5141 68.0123C28.4334 68.0697 28.3835 68.1549 28.3676 68.2462C28.3516 68.3374 28.3701 68.4348 28.4266 68.5168C28.6428 68.8304 28.8957 69.1173 29.178 69.3708C29.4604 69.6244 29.7718 69.8446 30.1046 70.024C30.7913 70.3943 31.5707 70.5792 32.3503 70.5792C33.13 70.5792 33.9094 70.3941 34.5955 70.024L29.0103 68.101ZM29.0103 68.101C29.1943 68.3679 29.4099 68.6122 29.65 68.828M29.0103 68.101L29.65 68.828M29.65 68.828C29.8901 69.0439 30.1553 69.2311 30.4388 69.3839L29.65 68.828Z" fill="#FEEFE9" stroke="#FEEFE9" stroke-width="0.2"/>
</g>
<defs>
<clipPath id="clip0_783_23485">
<rect width="72" height="72" rx="36" fill="white"/>
</clipPath>
</defs>
</svg>
