<svg width="72" height="72" viewBox="0 0 72 72" fill="none" xmlns="http://www.w3.org/2000/svg">
<g clip-path="url(#clip0_782_27376)">
<rect width="72" height="72" rx="36" fill="#D2F2E3"/>
<path d="M41.4626 80.8123L43.3894 80.9469L45.3163 81.0815C46.273 81.1484 47.188 80.8347 47.8849 80.2641C48.5818 79.6936 49.0607 78.8666 49.1452 77.9071C49.2313 76.9294 48.8185 76.077 48.2457 75.4245C47.6729 74.772 46.9399 74.3191 46.3857 74.1407C46.2556 74.0986 46.0266 74.0588 45.8267 73.9003C45.6267 73.7417 45.4556 73.4647 45.4408 72.9485C45.387 71.0423 45.3402 69.7582 45.3069 68.9503C45.2736 68.1424 45.2539 67.8113 45.2539 67.8113C45.3209 66.8503 45.0087 65.9314 44.4414 65.2317C43.8737 64.532 43.0505 64.0514 42.095 63.9673C41.1216 63.8813 40.2096 64.2046 39.5242 64.793C38.8388 65.3814 38.3794 66.2351 38.3114 67.2101L38.271 72.1444L38.2307 77.0787C38.1401 78.3776 38.3718 79.2707 38.9141 79.8592C39.4568 80.4477 40.31 80.7318 41.4626 80.8123Z" fill="#FFCB31"/>
<path d="M27.0817 80.8098L29.0085 80.9444L30.9353 81.079C31.8921 81.1458 32.8071 80.8321 33.504 80.2616C34.2009 79.6911 34.6798 78.8641 34.7643 77.9046C34.8504 76.9269 34.4376 76.0745 33.8648 75.422C33.292 74.7695 32.5589 74.3165 32.0047 74.1381C31.8747 74.0961 31.6457 74.0563 31.4457 73.8978C31.2457 73.7392 31.0746 73.4622 31.0599 72.946C31.0061 71.0398 30.9592 69.7557 30.926 68.9478C30.8927 68.1399 30.873 67.8088 30.873 67.8088C30.94 66.8478 30.6278 65.9289 30.0604 65.2292C29.4928 64.5294 28.6696 64.0489 27.7141 63.9647C26.7407 63.8787 25.8287 64.2021 25.1433 64.7905C24.4579 65.3789 23.9984 66.2326 23.9305 67.2076L23.8901 72.1419L23.8498 77.0762C23.7592 78.3751 23.9909 79.2682 24.5332 79.8566C25.0758 80.4451 25.9291 80.7292 27.0817 80.8098Z" fill="#FFCB31"/>
<path d="M18.8816 20.1951C19.3521 21.8248 20.0337 23.2258 20.8961 24.1325C21.7586 25.0393 22.8019 25.4516 23.9951 25.1038C25.2781 24.7302 25.94 23.8213 26.1636 22.5983C26.3871 21.3754 26.172 19.8385 25.7016 18.2087C25.2311 16.579 24.5741 15.1708 23.7237 14.2606C22.8734 13.3505 21.8304 12.9382 20.5877 13.3C19.3945 13.6475 18.7326 14.5564 18.4866 15.7857C18.2406 17.015 18.4112 18.5654 18.8816 20.1951Z" fill="black"/>
<path d="M51.9965 20.0257C51.5261 21.6554 50.8445 23.0563 49.982 23.9631C49.1196 24.8699 48.0763 25.2822 46.883 24.9344C45.6001 24.5607 44.9382 23.6518 44.7146 22.4289C44.491 21.206 44.7061 19.669 45.1766 18.0393C45.647 16.4096 46.3041 15.0013 47.1544 14.0912C48.0048 13.1811 49.0478 12.7688 50.2904 13.1306C51.4837 13.4781 52.1456 14.387 52.3916 15.6163C52.6376 16.8456 52.4667 18.3959 51.9965 20.0257Z" fill="black"/>
<path d="M35.2129 49.104C39.9359 49.104 44.2122 49.5114 47.3073 51.1868C50.4023 52.8622 52.3169 55.8059 52.3169 60.8786C52.3169 65.2107 50.6214 68.1543 47.6353 70.0147C44.6496 71.8754 40.3734 72.6529 35.2129 72.6529C30.0524 72.6529 25.7761 71.8754 22.7904 70.0147C19.8047 68.154 18.1088 65.2107 18.1088 60.8786C18.1088 55.8059 20.0234 52.8625 23.1185 51.1868C26.2136 49.5111 30.4895 49.104 35.2129 49.104Z" fill="#FA703C"/>
<path d="M35.1209 19.5522C41.271 19.5522 47.9135 20.6824 53.0186 23.5335C58.1236 26.3846 61.6913 30.9577 61.6913 37.8431C61.6913 44.5729 58.5468 49.1454 53.6532 52.0358C48.7596 54.9262 42.1171 56.1339 35.1209 56.1339C27.104 56.1339 20.4612 54.6487 15.823 51.6199C11.1848 48.591 8.55045 44.0182 8.55045 37.8428C8.55045 30.7091 11.8121 26.1364 16.7645 23.347C21.7169 20.5576 28.3591 19.5522 35.1209 19.5522Z" fill="#FA703C"/>
<path opacity="0.3" d="M45.2189 64.9359L45.219 64.9358C45.3025 64.8143 45.3299 64.6699 45.3063 64.535C45.2828 64.4008 45.2091 64.2739 45.0887 64.1882L45.0886 64.1881C44.9686 64.1029 44.8251 64.0746 44.6907 64.0984C44.5561 64.1223 44.431 64.1989 44.3473 64.3201L44.3472 64.3203C44.1571 64.5963 43.9342 64.8492 43.6859 65.0727C43.4377 65.296 43.1637 65.4896 42.871 65.6475L42.871 65.6475C42.2689 65.9724 41.5832 66.1352 40.8964 66.1352C40.2097 66.1352 39.5243 65.9718 38.9231 65.6475C38.6308 65.4897 38.3569 65.2961 38.1083 65.0728C37.8598 64.8498 37.6369 64.5967 37.4465 64.3205C37.3427 64.1694 37.1718 64.1001 37.0109 64.1001C36.8498 64.1001 36.6788 64.1695 36.5751 64.3207M45.2189 64.9359L28.6828 64.4634L28.5525 64.5377C28.5525 64.5377 28.5524 64.5376 28.5524 64.5375C28.4791 64.4089 28.4653 64.263 28.4995 64.1314C28.5341 63.9985 28.6191 63.8788 28.746 63.8041M45.2189 64.9359C44.9809 65.2815 44.7024 65.5977 44.3916 65.8771C44.0808 66.1565 43.7379 66.3993 43.3711 66.5972L45.2189 64.9359ZM36.5751 64.3207C36.575 64.3207 36.575 64.3208 36.575 64.3208L36.6987 64.4057M36.5751 64.3207C36.5751 64.3206 36.5752 64.3206 36.5752 64.3205L36.6987 64.4057M36.5751 64.3207C36.3847 64.5968 36.1618 64.8498 35.9133 65.0732C35.6647 65.2967 35.391 65.4903 35.0986 65.6481C34.4695 65.9877 33.7503 66.1499 33.0331 66.134C32.3159 66.1181 31.6035 65.9244 30.9876 65.555C30.6745 65.3671 30.3871 65.1389 30.1323 64.8774C29.8776 64.6158 29.6555 64.3213 29.4736 64.001C29.4006 63.8718 29.2823 63.7852 29.1507 63.7494C29.0185 63.7134 28.8728 63.729 28.746 63.8041M36.6987 64.4057C36.7698 64.302 36.8903 64.2501 37.0109 64.2501C37.1314 64.2501 37.2519 64.302 37.323 64.4057H36.6987ZM28.746 63.8041C28.7461 63.804 28.7461 63.804 28.7462 63.8039L28.8223 63.9332L28.7458 63.8042C28.7459 63.8041 28.7459 63.8041 28.746 63.8041ZM34.4009 67.0623L34.4008 67.0623L43.3711 66.5972C42.613 67.0064 41.7544 67.2099 40.8967 67.2099C40.0391 67.2099 39.1804 67.0061 38.423 66.5972C38.1338 66.4412 37.859 66.2571 37.6031 66.0489C37.3921 65.8772 37.1938 65.6891 37.0109 65.4867C36.8278 65.6892 36.6294 65.8774 36.4186 66.0489C36.163 66.2568 35.8882 66.4409 35.5988 66.5972L35.5987 66.5972C35.2203 66.8015 34.8171 66.9575 34.4009 67.0623Z" fill="#FEEFE9" stroke="#FEEFE9" stroke-width="0.3"/>
<path d="M37.4146 34.7771C36.397 34.0843 35.0599 34.0843 34.0423 34.7771L32.2186 36.0185C31.3458 36.6127 31.2772 37.8753 32.0806 38.5606L34.1077 40.29C35.0416 41.0867 36.4153 41.0867 37.3492 40.29L39.3763 38.5606C40.1797 37.8753 40.1111 36.6127 39.2383 36.0185L37.4146 34.7771Z" fill="#FFCB31"/>
<path d="M43.8171 36.2412C43.8171 36.8261 44.0537 37.3552 44.4366 37.7383C44.8195 38.1214 45.3481 38.3584 45.9322 38.3584C46.5163 38.3584 47.0449 38.1214 47.4278 37.7383C47.8107 37.3552 48.0473 36.8258 48.0473 36.2412C48.0473 35.6567 47.8107 35.1272 47.4278 34.7442C47.0452 34.3611 46.5163 34.124 45.9322 34.124C45.3481 34.124 44.8195 34.3611 44.4366 34.7442C44.054 35.1272 43.8171 35.6567 43.8171 36.2412Z" fill="white"/>
<path d="M23.4109 36.2412C23.4109 36.8261 23.6475 37.3552 24.0304 37.7383C24.413 38.1214 24.9419 38.3584 25.526 38.3584C26.11 38.3584 26.6386 38.1214 27.0215 37.7383C27.4042 37.3552 27.6411 36.8258 27.6411 36.2412C27.6411 35.6567 27.4045 35.1272 27.0215 34.7442C26.6389 34.3611 26.11 34.124 25.526 34.124C24.9419 34.124 24.4133 34.3611 24.0304 34.7442C23.6475 35.1272 23.4109 35.6567 23.4109 36.2412Z" fill="white"/>
<path d="M59.5315 54.3804C60.0863 55.2834 60.5591 56.2885 60.8704 57.3078C61.1819 58.3271 61.4398 59.0747 61.3142 60.3921C61.2531 61.0388 61.2363 61.4219 60.8704 62.2164C60.5044 63.0108 59.6521 63.686 58.827 64.2502C58.359 64.5701 57.6483 64.9111 57.0617 64.9479C56.4751 64.9846 56.0768 65.1754 55.5127 64.9478C54.7454 64.6387 53.9496 63.8741 53.1521 62.9864C52.3543 62.0987 51.5546 61.0879 50.7799 60.2868C49.6322 59.0999 48.2413 58.2606 47.0216 57.6607C45.8018 57.0611 44.7533 56.701 44.29 56.4725C43.2149 55.9423 42.3537 55.463 41.691 54.9706C41.0286 54.4783 40.5647 53.9729 40.2843 53.3911C39.9951 52.7904 39.8146 52.2754 39.743 51.7486C39.6714 51.2221 39.7083 50.6838 39.8546 50.0375C40.0072 49.3619 40.4014 48.7423 40.8989 48.2542C41.3963 47.7661 41.9973 47.4092 42.5636 47.2596C45.2375 46.553 48.7881 47.208 52.0161 48.6019C55.2441 49.9958 58.1488 52.1293 59.5315 54.3804Z" fill="#FA703C"/>
<path d="M48.2094 60.3715C48.2094 64.014 49.0748 65.2523 54.8062 65.2523C58.4494 65.2523 61.4029 63.0671 61.4029 60.3715C61.4029 57.6759 58.4494 55.4907 54.8062 55.4907C51.1629 55.4907 48.2094 57.6759 48.2094 60.3715Z" fill="#FA703C"/>
<path d="M50.5042 56.6396C49.1054 57.5328 48.2097 58.9063 48.2097 60.4467C48.2097 61.1882 48.243 61.83 48.341 62.3818" stroke="#F7441C" stroke-width="1.7" stroke-linecap="round"/>
<rect width="147.333" height="41.6163" rx="6" transform="matrix(-1 0 0 1 110.134 62.5591)" fill="#FFD55A"/>
<path d="M59.8239 63.8203C59.8708 63.8203 59.9176 63.8269 59.9627 63.84L67.2782 65.9549C67.5175 66.0241 67.6693 66.2588 67.6344 66.5054C67.5995 66.752 67.3884 66.9352 67.1393 66.9352H33.2621C33.2189 66.9352 33.1759 66.9297 33.1342 66.9186L25.1366 64.8037C24.8938 64.7395 24.7363 64.505 24.7686 64.2559C24.801 64.0067 25.0132 63.8203 25.2645 63.8203H59.8239Z" fill="#8D9398" stroke="#8D9398" stroke-linejoin="round"/>
<path d="M36.8351 64.2198C37.6754 64.0532 38.5292 63.7809 39.3002 63.4037C40.0713 63.0266 40.7596 62.5447 41.2695 61.959C41.6129 61.5644 41.9905 61.0083 42.2484 60.3488C42.5062 59.6894 42.644 58.9267 42.5084 58.1189C42.4313 57.6608 42.2154 57.2271 41.9062 56.8544C41.5967 56.4819 41.1939 56.1705 40.7428 55.9576C40.1297 55.6679 39.2343 55.6131 38.2661 55.6255C37.2977 55.6376 36.2563 55.7167 35.3515 55.6949C34.011 55.6624 32.7365 55.2916 31.6984 54.891C30.6604 54.4903 29.8588 54.0599 29.4641 53.9081C28.5483 53.5559 27.7826 53.3039 27.1214 53.1784C26.4603 53.0531 25.9035 53.0542 25.4055 53.2078C24.8915 53.3665 24.4889 53.5432 24.1407 53.7917C23.7928 54.0401 23.4992 54.3602 23.204 54.8058C22.8954 55.2713 22.7557 55.851 22.751 56.4199C22.7463 56.9888 22.8766 57.5472 23.1085 57.9701C24.2033 59.9671 26.5877 61.737 29.222 62.9042C31.856 64.0711 34.7404 64.6352 36.8351 64.2198Z" fill="#FA703C"/>
<path d="M41.2313 55.5625C40.5927 55.2607 39.6601 55.2036 38.6517 55.2165C37.6431 55.2292 36.5585 55.3116 35.6161 55.2888C34.22 55.255 32.8926 54.8688 31.8113 54.4516C30.7302 54.0343 29.8954 53.586 29.4843 53.4278C28.5304 53.061 27.733 52.7986 27.0443 52.6679" stroke="#F7441C" stroke-width="2" stroke-linecap="round" stroke-linejoin="round"/>
<path d="M33.2952 66.9359C33.1461 66.9359 33.0047 66.8692 32.9097 66.7542C32.8147 66.6391 32.776 66.4877 32.8043 66.3412L36.4771 47.2909C36.7039 46.1143 37.7337 45.2642 38.9319 45.2642H68.7323C70.3028 45.2642 71.4844 46.6953 71.1871 48.2374L67.6603 66.5305C67.6149 66.7658 67.409 66.9359 67.1693 66.9359H33.2952Z" fill="#B9BFC6" stroke="#B9BFC6" stroke-linejoin="round"/>
<ellipse cx="2.58134" cy="2.58396" rx="2.58134" ry="2.58396" transform="matrix(-1 0 0 1 56.3491 53.9106)" fill="#E3E3E3"/>
</g>
<defs>
<clipPath id="clip0_782_27376">
<rect width="72" height="72" rx="36" fill="white"/>
</clipPath>
</defs>
</svg>
