<svg width="72" height="72" viewBox="0 0 72 72" fill="none" xmlns="http://www.w3.org/2000/svg">
<g clip-path="url(#clip0_782_27408)">
<rect width="72" height="72" rx="36" fill="#FFEDB8"/>
<path d="M46.7823 68.2722C46.5336 68.8288 46.4911 69.4557 46.6624 70.0408L47.2918 72.1907C47.9382 74.3985 46.9817 76.761 44.9815 77.8972L43.1226 78.9531C41.1713 80.0615 38.6965 79.0596 38.0659 76.9058C37.7349 75.7754 37.9984 74.5543 38.7662 73.6609L39.1456 73.2195C39.8145 72.4411 40.0441 71.3771 39.7557 70.3921L39.6207 69.9309C39.4133 69.2835 39.1363 67.9582 39.5346 66.8084L40.1956 65.3292C41.0082 63.5103 43.1415 62.6946 44.9604 63.5073C46.7793 64.32 47.5949 66.4533 46.7823 68.2722Z" fill="#EBA513"/>
<path d="M6.61087 52.1583C6.13846 51.3127 5.74495 50.3768 5.49963 49.4343C5.25404 48.4918 5.15665 47.5426 5.27619 46.6695C5.35679 46.0814 5.54779 45.3439 5.91268 44.6327C6.27758 43.9214 6.8164 43.2367 7.5921 42.7533C8.03212 42.4792 8.55279 42.3426 9.09029 42.3316C9.62779 42.3206 10.1821 42.4357 10.689 42.6652C11.3783 42.9768 12.0763 43.7054 12.771 44.5465C13.466 45.3875 14.1581 46.341 14.8353 47.1022C15.8387 48.2298 17.0776 49.0494 18.1693 49.6439C19.261 50.2382 20.2054 50.6072 20.6201 50.8336C21.5822 51.3589 22.3509 51.8296 22.9376 52.3046C23.5241 52.7795 23.9286 53.2587 24.1625 53.8006C24.4038 54.3601 24.549 54.8372 24.5942 55.3209C24.6395 55.8043 24.585 56.2943 24.4266 56.8788C24.2612 57.4897 23.8772 58.0402 23.4038 58.4667C22.9305 58.8932 22.3676 59.196 21.8443 59.3108C19.3736 59.8532 16.1539 59.1189 13.2574 57.7224C10.3608 56.3259 7.78814 54.2666 6.61087 52.1583Z" fill="#FA703C"/>
<path d="M54.1764 18.6864C53.7496 20.394 53.095 21.8722 52.2341 22.845C51.3731 23.8177 50.3058 24.2846 49.0542 23.969C47.7086 23.6301 46.9873 22.7127 46.7091 21.4531C46.431 20.1936 46.5962 18.5919 47.0231 16.8844C47.4499 15.1768 48.0787 13.6919 48.927 12.7161C49.7752 11.7404 50.8422 11.2735 52.1456 11.6017C53.3972 11.9169 54.1185 12.8343 54.4201 14.0997C54.7218 15.365 54.6033 16.9789 54.1764 18.6864Z" fill="#171717"/>
<path d="M19.8001 19.7629C20.3499 21.435 21.1102 22.8618 22.0395 23.7694C22.9688 24.677 24.0672 25.0651 25.2926 24.6594C26.6101 24.2236 27.2628 23.2562 27.4487 21.9798C27.6346 20.7034 27.3534 19.1179 26.8037 17.4459C26.2539 15.7739 25.5188 14.3386 24.6019 13.427C23.685 12.5155 22.5869 12.1274 21.3109 12.5494C20.0855 12.9547 19.4328 13.9221 19.2238 15.206C19.0149 16.4899 19.2507 18.0909 19.8001 19.7629Z" fill="#171717"/>
<path d="M37.7429 45.4714C33.0103 46.0206 28.778 46.9711 25.8929 49.1947C23.0078 51.4182 21.4694 54.9152 22.1243 60.5578C22.6835 65.3766 25.9222 68.4382 28.8025 69.7279C30.5489 70.5098 35.6701 71.6256 40.8411 71.0254C46.012 70.4253 50.1433 68.932 52.8948 66.5151C55.109 64.5701 56.8855 60.7498 56.4015 56.5797C55.7467 50.9371 53.4483 47.8857 50.1306 46.3817C46.8129 44.8777 42.4758 44.9221 37.7429 45.4714Z" fill="#FA703C"/>
<path d="M37.7433 45.4709C33.0107 46.0202 28.7551 46.7699 25.7742 48.1677C22.7933 49.5655 21.0865 51.6117 21.4512 54.7542C21.7627 57.4379 24.8269 58.9967 27.6249 59.5764C29.3212 59.9279 34.3557 60.296 39.5267 59.6959C44.6976 59.0957 48.8803 58.0457 51.7383 56.5458C54.0382 55.3388 55.998 53.0985 55.7285 50.7761C55.3638 47.6336 53.2337 46.0329 50.0119 45.3547C46.7901 44.6766 42.4762 44.9216 37.7433 45.4709Z" fill="#FA703C"/>
<path d="M36.8632 18.6521C30.4799 18.8843 23.6283 20.3068 18.4373 23.4558C13.2463 26.6047 9.71589 31.481 9.97558 38.62C10.2294 45.5978 13.6655 50.2201 18.8536 53.0322C24.0417 55.8443 30.9815 56.8457 38.243 56.5816C46.5637 56.2789 53.4022 54.4882 58.102 51.1726C62.8018 47.857 65.3635 43.0163 65.1306 36.6133C64.8615 29.2169 61.3037 24.5987 56.0584 21.8936C50.8131 19.1884 43.8813 18.3968 36.8632 18.6521Z" fill="#FA703C"/>
<path d="M18.8531 53.0302C15.308 51.1087 12.581 48.342 11.1283 44.5562" stroke="#F85126" stroke-width="2" stroke-linecap="round"/>
<path d="M25.9242 34.6678C25.9463 35.2742 25.7207 35.8318 25.3377 36.2435C24.9547 36.6551 24.415 36.9208 23.8088 36.9429C23.2026 36.965 22.645 36.7391 22.2332 36.3564C21.8213 35.9736 21.5558 35.4336 21.5337 34.8275C21.5117 34.2215 21.7373 33.6636 22.1202 33.2519C22.5029 32.8403 23.0429 32.5745 23.6491 32.5525C24.2553 32.5304 24.8129 32.7562 25.2248 33.139C25.6363 33.5217 25.9022 34.0618 25.9242 34.6678Z" fill="white"/>
<path d="M47.1042 33.8978C47.1263 34.5042 46.9007 35.0618 46.5177 35.4734C46.135 35.8851 45.595 36.1508 44.9888 36.1729C44.3826 36.1949 43.825 35.9691 43.4132 35.5864C43.0016 35.2036 42.7358 34.6636 42.7137 34.0575C42.6917 33.4515 42.9173 32.8936 43.3002 32.4819C43.6829 32.0702 44.2229 31.8045 44.8291 31.7824C45.4353 31.7604 45.9929 31.9862 46.4048 32.369C46.8167 32.7517 47.0822 33.2917 47.1042 33.8978Z" fill="white"/>
<path fill-rule="evenodd" clip-rule="evenodd" d="M49.6987 53.0399C50.053 53.2236 50.1913 53.6597 50.0075 54.014C49.1856 55.599 47.5997 56.7505 45.6871 56.934C44.1272 57.0837 42.6582 56.5599 41.5682 55.6023C40.6802 56.7497 39.3376 57.5432 37.7777 57.6929C36.2179 57.8426 34.7491 57.3189 33.6591 56.3613C32.771 57.5087 31.4285 58.3021 29.8687 58.4518C27.9561 58.6353 26.1802 57.8063 25.0719 56.4065C24.8241 56.0936 24.8769 55.6392 25.1898 55.3915C25.5027 55.1437 25.9572 55.1965 26.2049 55.5094C27.0217 56.541 28.3265 57.1479 29.7307 57.0132C31.1348 56.8785 32.3003 56.0347 32.9061 54.8667C33.019 54.6491 33.2345 54.5036 33.4786 54.4801C33.7226 54.4567 33.9619 54.5586 34.114 54.7508C34.9309 55.7823 36.2356 56.3891 37.6397 56.2543C39.0439 56.1196 40.2095 55.2757 40.8152 54.1076C40.9281 53.8899 41.1436 53.7444 41.3877 53.721C41.6317 53.6975 41.871 53.7995 42.0232 53.9917C42.84 55.0233 44.1448 55.6302 45.549 55.4955C46.9532 55.3607 48.1188 54.5168 48.7246 53.3487C48.9083 52.9944 49.3445 52.8562 49.6987 53.0399Z" fill="#FB9670"/>
<path fill-rule="evenodd" clip-rule="evenodd" d="M46.5075 59.6346C46.8612 59.8195 46.9981 60.256 46.8132 60.6097C45.9218 62.3155 44.2109 63.5535 42.1491 63.7513C40.6456 63.8956 39.2195 63.4611 38.0927 62.6316C37.1441 63.6603 35.8266 64.3579 34.3232 64.5022C32.581 64.6694 30.9424 64.0594 29.7532 62.958C29.4604 62.6868 29.4429 62.2296 29.7141 61.9368C29.9853 61.644 30.4425 61.6265 30.7352 61.8977C31.6349 62.731 32.8702 63.1898 34.1851 63.0636C35.5322 62.9344 36.6806 62.2182 37.4029 61.1899C37.5242 61.0171 37.715 60.906 37.9252 60.8859C38.1353 60.8657 38.3438 60.9385 38.4957 61.085C39.4004 61.9573 40.664 62.442 42.011 62.3127C43.5661 62.1635 44.8577 61.2314 45.5324 59.9404C45.7172 59.5867 46.1538 59.4498 46.5075 59.6346Z" fill="#FB9670"/>
<path fill-rule="evenodd" clip-rule="evenodd" d="M35.7326 32.5966C34.821 32.0243 33.6516 32.0676 32.7833 32.7058L30.3949 34.4612C29.6501 35.0086 29.6296 36.1139 30.3536 36.6867L33.0594 38.8274C33.901 39.4933 35.1023 39.4488 35.8942 38.7225L38.4401 36.3874C39.1212 35.7626 39.0218 34.6616 38.24 34.1708L35.7326 32.5966Z" fill="#FFCB31"/>
<path d="M68.9212 44.4326C69.091 43.454 69.1539 42.415 69.0712 41.4198C68.9887 40.4245 68.7605 39.473 68.3484 38.6689C68.0707 38.1274 67.6354 37.4787 67.0409 36.9145C66.4463 36.3503 65.6924 35.8708 64.7778 35.6666C64.259 35.5509 63.7089 35.5956 63.1851 35.7675C62.6614 35.9393 62.1641 36.239 61.7517 36.6331C61.1906 37.1687 60.7628 38.1107 60.3762 39.1603C59.9895 40.2101 59.6437 41.3676 59.247 42.334C58.6592 43.7657 57.739 44.9794 56.8847 45.9253C56.0303 46.871 55.2419 47.5488 54.9176 47.9087C54.1652 48.7436 53.5814 49.4601 53.175 50.1188C52.7689 50.7775 52.5402 51.3785 52.498 51.9822C52.4545 52.6055 52.4761 53.1164 52.5966 53.5997C52.717 54.0828 52.9361 54.5383 53.2879 55.05C53.6553 55.5849 54.2139 55.9871 54.8167 56.239C55.4194 56.4908 56.0669 56.5926 56.6121 56.526C59.1867 56.2116 62.0523 54.4078 64.3804 52.073C66.7085 49.7382 68.4982 46.8721 68.9212 44.4326Z" fill="#FA703C"/>
<path d="M63.1603 36.7148C62.6641 36.8777 62.1931 37.1615 61.8023 37.5349C61.2708 38.0423 60.8655 38.9346 60.4993 39.929C60.1329 40.9235 59.8054 42.0201 59.4296 42.9355C58.8727 44.2918 58.0009 45.4417 57.1916 46.3378C56.3823 47.2336 55.6354 47.8757 55.3282 48.2166" stroke="#F85126" stroke-width="2" stroke-linecap="round"/>
<path d="M44.3391 70.3338C44.0212 70.671 43.4514 72.1123 43.3779 72.5699L43.0881 74.3749C42.7206 76.6638 40.7558 78.4738 38.3423 78.7468L36.0994 79.0005C33.7449 79.2668 31.8318 77.3818 32.1903 75.1487C32.3785 73.9767 33.1739 72.9516 34.304 72.4247L34.8625 72.1644C35.8472 71.7053 36.5402 70.8121 36.7042 69.7909L36.781 69.3127C36.8718 68.6345 37.6546 66.932 38.0904 66.3966C38.5262 65.8612 38.5941 65.7776 39.3798 65.2874C40.1654 64.7971 41.8892 64.4999 43.5956 65.8564C45.1969 67.1293 45.5711 69.0271 44.3391 70.3338Z" fill="#FFCB31"/>
<path d="M40.8097 71.061C42.1021 74.892 41.4053 78.5861 38.3043 79.6322C35.2032 80.6784 32.4111 78.1612 31.1188 74.3302C29.8264 70.4992 30.3939 66.8487 33.6242 65.759C36.8546 64.6692 39.5174 67.23 40.8097 71.061Z" fill="#FFCB31"/>
<path d="M43.0584 74.7039C42.6861 77.0059 40.4718 79.8993 37.017 79.8523C35.1602 79.552 35.9606 75.5427 36.2738 73.6064C36.587 71.6702 38.3461 70.344 40.2029 70.6444C42.0597 70.9447 43.3716 72.7676 43.0584 74.7039Z" fill="#FFCB31"/>
<g style="mix-blend-mode:multiply" opacity="0.5">
<path d="M39.4204 68.1245C40.4495 69.5654 42.2051 73.166 40.9946 76.0409" stroke="#FFCB31" stroke-width="3.62416" stroke-linecap="round"/>
</g>
</g>
<defs>
<clipPath id="clip0_782_27408">
<rect width="72" height="72" rx="36" fill="white"/>
</clipPath>
</defs>
</svg>
