<svg width="72" height="72" viewBox="0 0 72 72" fill="none" xmlns="http://www.w3.org/2000/svg">
<g clip-path="url(#clip0_783_24452)">
<rect width="72" height="72" rx="36" fill="#DAECFE"/>
<path d="M34.976 83.5021L33.0555 83.6362L31.1349 83.7702C30.1812 83.8368 29.2692 83.5244 28.5746 82.9563C27.8799 82.3882 27.4026 81.5648 27.3184 80.6093C27.2326 79.6358 27.644 78.787 28.2149 78.1373C28.7859 77.4876 29.5166 77.0366 30.069 76.8589C30.1986 76.8171 30.4268 76.7775 30.6262 76.6196C30.8255 76.4617 30.996 76.1859 31.0107 75.6719C31.0644 73.7738 31.1111 72.4952 31.1442 71.6907C31.1774 70.8863 31.197 70.5566 31.197 70.5566C31.1303 69.5997 31.4414 68.6847 32.0069 67.988C32.5728 67.2912 33.3933 66.8127 34.3457 66.7289C35.3159 66.6433 36.2249 66.9653 36.9081 67.5511C37.5913 68.137 38.0493 68.9871 38.117 69.9579L38.1573 74.8712L38.1975 79.7845C38.2877 81.0778 38.0568 81.9671 37.5162 82.5531C36.9754 83.1391 36.1249 83.422 34.976 83.5021Z" fill="#FFCB31"/>
<path d="M49.3105 83.502L47.3899 83.6361L45.4693 83.7701C44.5157 83.8367 43.6037 83.5243 42.909 82.9562C42.2143 82.3881 41.737 81.5647 41.6528 80.6092C41.567 79.6357 41.9784 78.7869 42.5494 78.1372C43.1203 77.4875 43.851 77.0365 44.4034 76.8588C44.533 76.817 44.7612 76.7774 44.9606 76.6195C45.1599 76.4616 45.3305 76.1858 45.3451 75.6718C45.3988 73.7737 45.4455 72.4951 45.4786 71.6906C45.5118 70.8862 45.5315 70.5565 45.5315 70.5565C45.4647 69.5996 45.7758 68.6846 46.3414 67.9879C46.9072 67.2911 47.7277 66.8126 48.6801 66.7288C49.6503 66.6432 50.5594 66.9652 51.2425 67.5511C51.9257 68.1369 52.3837 68.987 52.4514 69.9578L52.4917 74.8711L52.5319 79.7844C52.6221 81.0777 52.3912 81.967 51.8506 82.553C51.3098 83.139 50.4593 83.4219 49.3105 83.502Z" fill="#FFCB31"/>
<path d="M65.0129 66.8244C65.0737 67.6761 65.0363 68.5685 64.8765 69.4087C64.7169 70.2491 64.4349 71.0374 64.0062 71.6814C63.7174 72.1151 63.2825 72.6242 62.7167 73.0451C62.151 73.4661 61.4546 73.7987 60.6431 73.8803C60.1828 73.9265 59.7095 73.8327 59.2703 73.6331C58.8313 73.4334 58.4263 73.1277 58.1033 72.7499C57.664 72.2364 57.3761 71.3899 57.1336 70.4556C56.8909 69.5213 56.6934 68.4993 56.4347 67.635C56.0514 66.3547 55.3604 65.2265 54.7029 64.3334C54.0454 63.4405 53.4214 62.7828 53.1719 62.4431C52.5929 61.6549 52.1498 60.9849 51.8556 60.382C51.5615 59.7792 51.4163 59.2436 51.433 58.7245C51.4505 58.1886 51.5144 57.7551 51.6616 57.3551C51.8088 56.9554 52.0392 56.5891 52.3896 56.1884C52.7557 55.7694 53.2758 55.483 53.821 55.3292C54.3662 55.1754 54.9369 55.1541 55.404 55.2661C57.6097 55.7947 59.9362 57.6229 61.7494 59.8495C63.5621 62.0759 64.8616 64.7013 65.0129 66.8244Z" fill="#FA703C"/>
<path d="M9.72956 54.1047C9.27399 53.2146 8.90318 52.2345 8.68548 51.2531C8.46751 50.2716 8.40266 49.2887 8.55873 48.3926C8.66395 47.789 8.88864 47.0354 9.29175 46.3154C9.69485 45.5954 10.2764 44.9093 11.0947 44.4397C11.5589 44.1736 12.1011 44.0522 12.656 44.061C13.2108 44.0698 13.7784 44.2093 14.2926 44.465C14.992 44.8124 15.6846 45.5902 16.3697 46.4839C17.0551 47.3775 17.7332 48.3871 18.4033 49.1976C19.396 50.3985 20.6432 51.2905 21.747 51.9447C22.8509 52.5987 23.8112 53.0148 24.2305 53.2639C25.2033 53.8419 25.9785 54.3563 26.566 54.8682C27.1531 55.3801 27.5525 55.8896 27.7734 56.4574C28.0013 57.0436 28.1332 57.5413 28.1617 58.0419C28.1902 58.5423 28.1157 59.0457 27.9303 59.6426C27.7368 60.2666 27.32 60.8201 26.8157 61.2423C26.3114 61.6645 25.7194 61.9557 25.1753 62.0545C22.6062 62.5213 19.3125 61.643 16.377 60.0938C13.4414 58.5445 10.8649 56.3236 9.72956 54.1047Z" fill="#FA703C"/>
<path d="M56.4826 23.1456C56.0137 24.7684 55.3343 26.1634 54.4747 27.0663C53.615 27.9692 52.5751 28.3797 51.3857 28.0334C50.1069 27.6614 49.4472 26.7563 49.2243 25.5386C49.0015 24.3209 49.2159 22.7905 49.6848 21.1677C50.1537 19.5449 50.8087 18.1427 51.6563 17.2365C52.5038 16.3302 53.5435 15.9197 54.7821 16.2799C55.9714 16.6259 56.6312 17.531 56.8764 18.755C57.1216 19.9791 56.9516 21.5228 56.4826 23.1456Z" fill="black"/>
<path d="M23.4747 22.9757C23.9436 24.5985 24.623 25.9935 25.4826 26.8964C26.3423 27.7993 27.3822 28.2098 28.5716 27.8635C29.8504 27.4914 30.5101 26.5864 30.733 25.3687C30.9558 24.151 30.7414 22.6206 30.2725 20.9978C29.8036 19.375 29.1486 17.9728 28.301 17.0665C27.4535 16.1603 26.4139 15.7498 25.1752 16.11C23.9859 16.456 23.3261 17.361 23.0809 18.5851C22.8357 19.8092 23.006 21.3529 23.4747 22.9757Z" fill="black"/>
<path d="M41.2055 51.9297C36.4978 51.9297 32.2355 52.3354 29.1504 54.0036C26.0654 55.6719 24.157 58.603 24.157 63.6541C24.157 67.9677 25.8471 70.8988 28.8234 72.7513C31.7994 74.6041 36.0618 75.3782 41.2055 75.3782C46.3493 75.3782 50.6116 74.6041 53.5877 72.7513C56.5637 70.8985 58.254 67.9677 58.254 63.6541C58.254 58.603 56.3457 55.6722 53.2607 54.0036C50.1756 52.3351 45.9136 51.9297 41.2055 51.9297Z" fill="#FA703C"/>
<path d="M41.206 22.5034C35.0758 22.5034 28.4549 23.6287 23.3664 26.4677C18.2779 29.3067 14.7218 33.8603 14.7218 40.7163C14.7218 47.4175 17.8561 51.9705 22.7338 54.8485C27.6115 57.7266 34.2324 58.9292 41.206 58.9292C49.1968 58.9292 55.818 57.4503 60.4412 54.4344C65.0644 51.4184 67.6902 46.8651 67.6902 40.716C67.6902 33.6128 64.4391 29.0595 59.5028 26.282C54.5664 23.5045 47.9459 22.5034 41.206 22.5034Z" fill="#FA703C"/>
<path d="M16.2514 47.2178C17.4494 50.4498 19.6769 52.9799 22.6008 54.9036C23.8854 55.7488 25.3044 56.477 26.8295 57.0961" stroke="#F7441C" stroke-width="2.2" stroke-linecap="round"/>
<path d="M37.0492 37.7137C37.7071 37.2663 38.5715 37.2663 39.2294 37.7137L42.2452 39.7646C42.8094 40.1483 42.8537 40.9637 42.3344 41.4063L39.1871 44.0885C38.5833 44.6031 37.6953 44.6031 37.0915 44.0885L33.9442 41.4063C33.4249 40.9637 33.4692 40.1483 34.0334 39.7646L37.0492 37.7137Z" fill="#FFCB31"/>
<g style="mix-blend-mode:multiply" opacity="0.7">
<path fill-rule="evenodd" clip-rule="evenodd" d="M54.7063 61.4194C54.9363 61.2347 55.2725 61.2715 55.4572 61.5015C56.1547 62.3705 56.6498 63.602 56.9437 64.7898C57.2375 65.9769 57.3497 67.2 57.2221 68.0785C57.1797 68.3704 56.9087 68.5727 56.6168 68.5303C56.3248 68.4879 56.1225 68.2169 56.1649 67.925C56.2656 67.2315 56.1814 66.1567 55.9067 65.0464C55.6322 63.9367 55.1867 62.8712 54.6241 62.1703C54.4394 61.9402 54.4762 61.604 54.7063 61.4194Z" fill="#F7441C"/>
<path fill-rule="evenodd" clip-rule="evenodd" d="M54.7063 61.4194C54.9363 61.2347 55.2725 61.2715 55.4572 61.5015C56.1547 62.3705 56.6498 63.602 56.9437 64.7898C57.2375 65.9769 57.3497 67.2 57.2221 68.0785C57.1797 68.3704 56.9087 68.5727 56.6168 68.5303C56.3248 68.4879 56.1225 68.2169 56.1649 67.925C56.2656 67.2315 56.1814 66.1567 55.9067 65.0464C55.6322 63.9367 55.1867 62.8712 54.6241 62.1703C54.4394 61.9402 54.4762 61.604 54.7063 61.4194Z" stroke="#F7441C" stroke-width="0.4" stroke-linecap="round"/>
</g>
<path d="M30.0773 39.5721C30.0773 40.1544 29.8415 40.6813 29.4598 41.0627C29.0781 41.4442 28.5512 41.6802 27.9691 41.6802C27.3869 41.6802 26.86 41.4442 26.4783 41.0627C26.0967 40.6813 25.8608 40.1541 25.8608 39.5721C25.8608 38.99 26.0967 38.4628 26.4783 38.0814C26.8597 37.6999 27.3869 37.4639 27.9691 37.4639C28.5512 37.4639 29.0781 37.6999 29.4598 38.0814C29.8412 38.4628 30.0773 38.99 30.0773 39.5721Z" fill="white"/>
<path d="M50.4173 39.5721C50.4173 40.1544 50.1814 40.6813 49.7998 41.0627C49.4184 41.4442 48.8912 41.6802 48.309 41.6802C47.7269 41.6802 47.2 41.4442 46.8183 41.0627C46.4369 40.6813 46.2008 40.1541 46.2008 39.5721C46.2008 38.99 46.4366 38.4628 46.8183 38.0814C47.1997 37.6999 47.7269 37.4639 48.309 37.4639C48.8912 37.4639 49.4181 37.6999 49.7998 38.0814C50.1814 38.4628 50.4173 38.99 50.4173 39.5721Z" fill="white"/>
<path opacity="0.3" d="M43.6294 62.2601L43.6294 62.2601C42.8811 62.6635 42.0324 62.8648 41.1851 62.8651C40.3376 62.8654 39.4883 62.6641 38.7388 62.2601L38.7388 62.2601C38.4527 62.1057 38.181 61.924 37.9281 61.7184C37.7199 61.5491 37.5246 61.3639 37.3442 61.1648C37.1632 61.3642 36.9674 61.5495 36.759 61.7187C36.5058 61.9243 36.2341 62.106 35.9477 62.2604L35.9477 62.2604C35.5736 62.4618 35.1755 62.6158 34.7645 62.7196C34.3533 62.8234 33.9291 62.8764 33.5033 62.8764C33.0372 62.8764 32.5754 62.8133 32.1301 62.6902C31.6848 62.5672 31.2562 62.3845 30.8565 62.1452L30.8565 62.1452C30.4687 61.913 30.113 61.631 29.798 61.3085C29.4831 60.9859 29.2085 60.6221 28.9833 60.2267L28.9832 60.2267C28.9108 60.0994 28.8963 59.9548 28.9305 59.8241C28.9647 59.6929 29.0491 59.5739 29.1751 59.4998L29.1754 59.4996L29.1754 59.4996C29.3012 59.4261 29.4454 59.4104 29.5764 59.4461C29.7066 59.4817 29.8237 59.5674 29.8963 59.6944L29.8964 59.6946C30.0764 60.0107 30.296 60.3016 30.5478 60.5593C30.7998 60.8171 31.0839 61.0425 31.3935 61.2278C32.0015 61.5918 32.7043 61.7832 33.4123 61.7991C34.1203 61.8151 34.8304 61.6554 35.4526 61.3198L35.4526 61.3198C35.7414 61.164 36.0124 60.973 36.2582 60.7525C36.504 60.532 36.7248 60.2822 36.9138 60.0094L36.9138 60.0094C36.9628 59.9387 37.0275 59.8818 37.1015 59.8427C37.1753 59.8037 37.2587 59.7822 37.3452 59.7822C37.4318 59.7822 37.5152 59.8037 37.589 59.8427C37.6629 59.8818 37.7277 59.9388 37.7768 60.0099C37.9649 60.2824 38.1847 60.5318 38.4302 60.7523C38.6757 60.9728 38.9461 61.1638 39.2348 61.3195C39.8294 61.64 40.5066 61.8006 41.1853 61.8006C41.8639 61.8006 42.5405 61.6394 43.1339 61.3195C43.4227 61.1638 43.6934 60.9727 43.9389 60.7523C44.1844 60.5318 44.4045 60.2824 44.5925 60.0097C44.6417 59.9384 44.7065 59.8816 44.7804 59.8423C44.8551 59.8026 44.9387 59.7815 45.0248 59.7815C45.1112 59.7815 45.1949 59.8031 45.2688 59.8421C45.3432 59.8814 45.4079 59.9388 45.4567 60.0097L45.4567 60.0097C45.6444 60.2821 45.8645 60.5315 46.1097 60.7517L46.0095 60.8633L46.1097 60.7517C46.3549 60.9718 46.6259 61.1631 46.9147 61.3189C47.536 61.6536 48.2464 61.8136 48.9547 61.7979C49.663 61.7822 50.3667 61.5911 50.9749 61.227C51.2843 61.0416 51.5684 60.8165 51.8199 60.5585C52.0716 60.3004 52.2909 60.0098 52.4705 59.6938C52.5429 59.5658 52.6603 59.4799 52.7911 59.4448C52.9216 59.4097 53.0657 59.4245 53.1916 59.4986L43.6294 62.2601ZM43.6294 62.2601C43.9156 62.1057 44.1872 61.9237 44.44 61.7184C44.6482 61.5495 44.8437 61.3643 45.0242 61.165L43.6294 62.2601ZM51.5117 62.1443L51.5117 62.1443C51.112 62.3835 50.6835 62.5665 50.2384 62.6896C49.7934 62.8127 49.3316 62.8761 48.8655 62.8761C48.4387 62.8761 48.0143 62.8228 47.6029 62.7193C47.1915 62.6158 46.7931 62.4618 46.419 62.2601C46.419 62.2601 46.419 62.2601 46.4189 62.2601L46.4901 62.128C46.2121 61.9782 45.9483 61.8017 45.7026 61.602L51.5117 62.1443ZM51.5117 62.1443C51.8996 61.912 52.255 61.63 52.5699 61.3072C52.8848 60.9844 53.1587 60.6209 53.3836 60.2256M51.5117 62.1443L53.1917 59.4986C53.3175 59.5726 53.402 59.6912 53.4363 59.823C53.4702 59.9535 53.4564 60.0982 53.3836 60.2256M53.3836 60.2256L53.2534 60.1512L53.3838 60.2254C53.3837 60.2255 53.3837 60.2256 53.3836 60.2256Z" fill="#FEEFE9" stroke="#FEEFE9" stroke-width="0.3"/>
<path opacity="0.3" d="M32.9601 67.7139L32.9601 67.7138C32.8772 67.5935 32.8501 67.4504 32.8734 67.3167C32.8967 67.1837 32.9698 67.058 33.0893 66.9731L33.0893 66.973C33.2083 66.8886 33.3505 66.8606 33.4837 66.8842C33.6171 66.9079 33.7412 66.9837 33.8242 67.1038L33.8243 67.104C34.012 67.3763 34.2321 67.6257 34.4774 67.8463C34.7225 68.0667 34.9932 68.2577 35.2822 68.4134L35.2823 68.4134C35.8768 68.7339 36.5541 68.8946 37.2324 68.8946C37.9107 68.8946 38.5877 68.7334 39.1814 68.4134L32.9601 67.7139ZM32.9601 67.7139C33.1954 68.0552 33.4707 68.3674 33.7779 68.6433C34.085 68.9191 34.424 69.1589 34.7865 69.3543L32.9601 67.7139ZM47.9714 67.7556L47.8668 67.6536C48.1184 67.3956 48.3377 67.105 48.5174 66.789C48.5897 66.661 48.7071 66.5752 48.8375 66.5397C48.9686 66.5041 49.113 66.5195 49.2387 66.5939C49.3645 66.6679 49.4488 66.7865 49.4831 66.9181C49.517 67.0485 49.5033 67.1932 49.4306 67.3205C49.4306 67.3206 49.4305 67.3207 49.4305 67.3208L49.3002 67.2464L47.9714 67.7556ZM47.9714 67.7556L47.8668 67.6536C47.6152 67.9117 47.3314 68.1367 47.0221 68.3221C46.4139 68.6866 45.7102 68.8777 45.0019 68.8934C44.2935 68.9091 43.5831 68.749 42.9618 68.414C42.6731 68.2583 42.4027 68.0673 42.1572 67.8468C41.9118 67.6264 41.6917 67.3767 41.5036 67.1043C41.4007 66.9545 41.2312 66.8859 41.0716 66.8859C40.9121 66.8859 40.7427 66.9545 40.6397 67.1042C40.4517 67.3766 40.2315 67.6264 39.9861 67.8465C39.7406 68.0667 39.4702 68.2577 39.1814 68.4134L47.9714 67.7556ZM43.6501 69.8135L43.6501 69.8135L34.7865 69.3543C35.5358 69.7584 36.3845 69.9593 37.2321 69.9593C38.0798 69.9593 38.9285 69.7581 39.6771 69.3543C39.9629 69.2003 40.2346 69.0185 40.4875 68.8129C40.6956 68.6437 40.8911 68.4586 41.0716 68.2593C41.2522 68.4586 41.4479 68.644 41.6557 68.8129C41.9084 69.0182 42.18 69.2 42.4661 69.3543L42.4661 69.3543C42.8402 69.5561 43.2387 69.7101 43.6501 69.8135Z" fill="#FEEFE9" stroke="#FEEFE9" stroke-width="0.3"/>
<path d="M3.95178 34.2992L4.78831 32.3503L6.77938 33.0809L12.8711 47.2189L10.0435 48.4372L3.95178 34.2992Z" fill="#FFCB31"/>
<path d="M4.14714 30.8615L6.77928 33.08L5.88088 32.9401L5.36548 33.6891L4.46707 33.5493L3.95168 34.2983L4.14714 30.8615Z" fill="#FEEFE9"/>
<path fill-rule="evenodd" clip-rule="evenodd" d="M5.16072 31.7171L4.14679 30.8626L4.07151 32.1862C4.26703 32.1674 4.46298 32.1183 4.65306 32.0364C4.84286 31.9546 5.01292 31.8461 5.16072 31.7171Z" fill="#FA6027"/>
<path fill-rule="evenodd" clip-rule="evenodd" d="M11.2576 23.8558C11.2233 23.715 11.1134 23.6051 10.9727 23.5709L8.09847 22.8706C7.70391 22.7745 7.70391 22.2134 8.09847 22.1173L10.9727 21.417C11.1134 21.3827 11.2233 21.2728 11.2576 21.1321L11.958 18.2573C12.0541 17.8628 12.6152 17.8628 12.7113 18.2573L13.4117 21.1319C13.446 21.2726 13.5558 21.3825 13.6966 21.4168L16.5718 22.1173C16.9663 22.2134 16.9663 22.7745 16.5718 22.8706L13.6966 23.5711C13.5559 23.6054 13.446 23.7153 13.4117 23.856L12.7113 26.7306C12.6152 27.1252 12.0541 27.1252 11.958 26.7306L11.2576 23.8558Z" fill="#FFCB31"/>
</g>
<defs>
<clipPath id="clip0_783_24452">
<rect width="72" height="72" rx="36" fill="white"/>
</clipPath>
</defs>
</svg>
